<?xml version="1.0" encoding="utf-8" ?>
<!DOCTYPE svg PUBLIC '-//W3C//DTD SVG 20001102//EN' 'http://www.w3.org/TR/2000/CR-SVG-20001102/DTD/svg-20001102.dtd'>
<svg height="280" width="519" xmlns="http://www.w3.org/2000/svg">
<rect height="24" style="fill:#ffffff; stroke:#ffffff; stroke-width:1" width="112" x="14" y="150"/>
<rect height="2" style="fill:#ffffff; stroke:#ffffff; stroke-width:1" width="112" x="14" y="150"/>
<rect height="2" style="fill: none; stroke:#000000; stroke-width:1" width="112" x="14" y="150"/>
<rect height="22" style="fill:#ffffff; stroke:#ffffff; stroke-width:1" width="112" x="14" y="152"/>
<text style="font-family:Dialog; font-size:12; font-weight:bold;" x="35" y="167">
Experiment</text>
<rect height="24" style="fill: none; stroke:#000000; stroke-width:1" width="112" x="14" y="150"/>
<rect height="24" style="fill:#ffffff; stroke:#ffffff; stroke-width:1" width="112" x="334" y="150"/>
<rect height="2" style="fill:#ffffff; stroke:#ffffff; stroke-width:1" width="112" x="334" y="150"/>
<rect height="2" style="fill: none; stroke:#000000; stroke-width:1" width="112" x="334" y="150"/>
<rect height="22" style="fill:#ffffff; stroke:#ffffff; stroke-width:1" width="112" x="334" y="152"/>
<text style="font-family:Dialog; font-size:12; font-weight:bold;" x="378" y="167">
Run</text>
<rect height="24" style="fill: none; stroke:#000000; stroke-width:1" width="112" x="334" y="150"/>
<rect height="24" style="fill:#ffffff; stroke:#ffffff; stroke-width:1" width="112" x="334" y="230"/>
<rect height="2" style="fill:#ffffff; stroke:#ffffff; stroke-width:1" width="112" x="334" y="230"/>
<rect height="2" style="fill: none; stroke:#000000; stroke-width:1" width="112" x="334" y="230"/>
<rect height="22" style="fill:#ffffff; stroke:#ffffff; stroke-width:1" width="112" x="334" y="232"/>
<text style="font-family:Dialog; font-size:12; font-weight:bold;" x="338" y="247">
LaneAssignment</text>
<rect height="24" style="fill: none; stroke:#000000; stroke-width:1" width="112" x="334" y="230"/>
<rect height="24" style="fill:#ffffff; stroke:#ffffff; stroke-width:1" width="112" x="14" y="230"/>
<rect height="2" style="fill:#ffffff; stroke:#ffffff; stroke-width:1" width="112" x="14" y="230"/>
<rect height="2" style="fill: none; stroke:#000000; stroke-width:1" width="112" x="14" y="230"/>
<rect height="22" style="fill:#ffffff; stroke:#ffffff; stroke-width:1" width="112" x="14" y="232"/>
<text style="font-family:Dialog; font-size:12; font-weight:bold;" x="47" y="247">
Sample</text>
<rect height="24" style="fill: none; stroke:#000000; stroke-width:1" width="112" x="14" y="230"/>
<polyline points="70,174 70,230" style="fill:none; stroke:#000000; stroke-width:1"/>
<text style="font-family:Dialog; font-size:10;" x="76" y="220">
1..*</text>
<polyline points="390,174 390,230" style="fill:none; stroke:#000000; stroke-width:1"/>
<text style="font-family:Dialog; font-size:10;" x="396" y="220">
1..8</text>
<polyline points="126,238 334,238" style="fill:none; stroke:#000000; stroke-width:1"/>
<text style="font-family:Dialog; font-size:10;" x="132" y="228">
1..*</text>
<rect height="24" style="fill:#ffffff; stroke:#ffffff; stroke-width:1" width="112" x="14" y="62"/>
<rect height="2" style="fill:#ffffff; stroke:#ffffff; stroke-width:1" width="112" x="14" y="62"/>
<rect height="2" style="fill: none; stroke:#000000; stroke-width:1" width="112" x="14" y="62"/>
<rect height="22" style="fill:#ffffff; stroke:#ffffff; stroke-width:1" width="112" x="14" y="64"/>
<text style="font-family:Dialog; font-size:12; font-weight:bold;" x="29" y="79">
Experimenter</text>
<rect height="24" style="fill: none; stroke:#000000; stroke-width:1" width="112" x="14" y="62"/>
<rect height="24" style="fill:#ffffff; stroke:#ffffff; stroke-width:1" width="112" x="334" y="62"/>
<rect height="2" style="fill:#ffffff; stroke:#ffffff; stroke-width:1" width="112" x="334" y="62"/>
<rect height="2" style="fill: none; stroke:#000000; stroke-width:1" width="112" x="334" y="62"/>
<rect height="22" style="fill:#ffffff; stroke:#ffffff; stroke-width:1" width="112" x="334" y="64"/>
<text style="font-family:Dialog; font-size:12; font-weight:bold;" x="346" y="79">
LabTechnician</text>
<rect height="24" style="fill: none; stroke:#000000; stroke-width:1" width="112" x="334" y="62"/>
<rect height="24" style="fill:#ffffff; stroke:#ffffff; stroke-width:1" width="112" x="174" y="94"/>
<rect height="2" style="fill:#ffffff; stroke:#ffffff; stroke-width:1" width="112" x="174" y="94"/>
<rect height="2" style="fill: none; stroke:#000000; stroke-width:1" width="112" x="174" y="94"/>
<rect height="22" style="fill:#ffffff; stroke:#ffffff; stroke-width:1" width="112" x="174" y="96"/>
<text style="font-family:Dialog; font-size:12; font-weight:bold;" x="192" y="111">
Registration</text>
<rect height="24" style="fill: none; stroke:#000000; stroke-width:1" width="112" x="174" y="94"/>
<polyline points="126,70 230,70 230,94" style="fill:none; stroke:#000000; stroke-width:1"/>
<polygon points="230,94 223,82 237,82" style="fill:#ffffff; stroke:#ffffff; stroke-width:1"/>
<polygon points="230,94 223,82 237,82" style="fill:none; stroke:#000000; stroke-width:1"/>
<polyline points="334,70 230,70 230,94" style="fill:none; stroke:#000000; stroke-width:1"/>
<polygon points="230,94 223,82 237,82" style="fill:#ffffff; stroke:#ffffff; stroke-width:1"/>
<polygon points="230,94 223,82 237,82" style="fill:none; stroke:#000000; stroke-width:1"/>
<polyline points="70,86 70,150" style="fill:none; stroke:#000000; stroke-width:1"/>
<text style="font-family:Dialog; font-size:10;" x="76" y="140">
0..*</text>
<polyline points="390,86 390,150" style="fill:none; stroke:#000000; stroke-width:1"/>
<text style="font-family:Dialog; font-size:10;" x="396" y="140">
0..*</text>
<rect height="24" style="fill:#ffffff; stroke:#ffffff; stroke-width:1" width="128" x="166" y="14"/>
<rect height="2" style="fill:#ffffff; stroke:#ffffff; stroke-width:1" width="128" x="166" y="14"/>
<rect height="2" style="fill: none; stroke:#000000; stroke-width:1" width="128" x="166" y="14"/>
<rect height="22" style="fill:#ffffff; stroke:#ffffff; stroke-width:1" width="128" x="166" y="16"/>
<text style="font-family:Dialog; font-size:12; font-weight:bold;" x="172" y="31">
LIMSAdministrator</text>
<rect height="24" style="fill: none; stroke:#000000; stroke-width:1" width="128" x="166" y="14"/>
<polyline points="230,38 230,94" style="fill:none; stroke:#000000; stroke-width:1"/>
<polygon points="230,94 223,82 237,82" style="fill:#ffffff; stroke:#ffffff; stroke-width:1"/>
<polygon points="230,94 223,82 237,82" style="fill:none; stroke:#000000; stroke-width:1"/>
<rect height="24" style="fill:#ffffff; stroke:#ffffff; stroke-width:1" width="112" x="174" y="150"/>
<rect height="2" style="fill:#ffffff; stroke:#ffffff; stroke-width:1" width="112" x="174" y="150"/>
<rect height="2" style="fill: none; stroke:#000000; stroke-width:1" width="112" x="174" y="150"/>
<rect height="22" style="fill:#ffffff; stroke:#ffffff; stroke-width:1" width="112" x="174" y="152"/>
<text style="font-family:Dialog; font-size:12; font-weight:bold;" x="183" y="167">
ProcessingStep</text>
<rect height="24" style="fill: none; stroke:#000000; stroke-width:1" width="112" x="174" y="150"/>
<polyline points="126,166 174,166" style="fill:none; stroke:#000000; stroke-width:1"/>
<text style="font-family:Dialog; font-size:10;" x="150" y="156">
0..*</text>
<polyline points="230,174 230,206 342,206 342,230" style="fill:none; stroke:#000000; stroke-width:1"/>
<text style="font-family:Dialog; font-size:10;" x="236" y="194">
0..*</text>
<text style="font-family:Dialog; font-size:10;" x="348" y="220">
0..*</text>
<polyline points="278,174 278,190 302,190 302,166 286,166" style="fill:none; stroke:#000000; stroke-width:1"/>
</svg>
