<?xml version="1.0" encoding="utf-8" ?>
<!DOCTYPE svg PUBLIC '-//W3C//DTD SVG 20001102//EN' 'http://www.w3.org/TR/2000/CR-SVG-20001102/DTD/svg-20001102.dtd'>
<svg height="566" width="487" xmlns="http://www.w3.org/2000/svg">
<rect height="66" style="fill:#ffffff; stroke:#ffffff; stroke-width:1" width="128" x="150" y="14"/>
<rect height="2" style="fill:#ffffff; stroke:#ffffff; stroke-width:1" width="128" x="150" y="14"/>
<rect height="2" style="fill: none; stroke:#000000; stroke-width:1" width="128" x="150" y="14"/>
<rect height="22" style="fill:#ffffff; stroke:#ffffff; stroke-width:1" width="128" x="150" y="16"/>
<text style="font-family:Dialog; font-size:12; font-weight:bold;" x="156" y="31">
LIMSAdministrator</text>
<rect height="20" style="fill:#ffffff; stroke:#ffffff; stroke-width:1" width="127" x="151" y="60"/>
<line style="fill:#000000; stroke:#000000; stroke-width:1" x1="151" x2="278" y1="60" y2="60"/>
<rect height="20" style="fill:#ffffff; stroke:#ffffff; stroke-width:1" width="127" x="151" y="39"/>
<line style="fill:#000000; stroke:#000000; stroke-width:1" x1="151" x2="278" y1="39" y2="39"/>
<rect height="66" style="fill: none; stroke:#000000; stroke-width:1" width="128" x="150" y="14"/>
<rect height="72" style="fill:#ffffff; stroke:#ffffff; stroke-width:1" width="112" x="302" y="86"/>
<rect height="2" style="fill:#ffffff; stroke:#ffffff; stroke-width:1" width="112" x="302" y="86"/>
<rect height="2" style="fill: none; stroke:#000000; stroke-width:1" width="112" x="302" y="86"/>
<rect height="22" style="fill:#ffffff; stroke:#ffffff; stroke-width:1" width="112" x="302" y="88"/>
<text style="font-family:Dialog; font-size:12; font-weight:bold;" x="314" y="103">
LabTechnician</text>
<rect height="22" style="fill:#ffffff; stroke:#ffffff; stroke-width:1" width="111" x="303" y="135"/>
<line style="fill:#000000; stroke:#000000; stroke-width:1" x1="303" x2="414" y1="135" y2="135"/>
<rect height="23" style="fill:#ffffff; stroke:#ffffff; stroke-width:1" width="111" x="303" y="111"/>
<line style="fill:#000000; stroke:#000000; stroke-width:1" x1="303" x2="414" y1="111" y2="111"/>
<rect height="72" style="fill: none; stroke:#000000; stroke-width:1" width="112" x="302" y="86"/>
<rect height="72" style="fill:#ffffff; stroke:#ffffff; stroke-width:1" width="112" x="14" y="86"/>
<rect height="2" style="fill:#ffffff; stroke:#ffffff; stroke-width:1" width="112" x="14" y="86"/>
<rect height="2" style="fill: none; stroke:#000000; stroke-width:1" width="112" x="14" y="86"/>
<rect height="22" style="fill:#ffffff; stroke:#ffffff; stroke-width:1" width="112" x="14" y="88"/>
<text style="font-family:Dialog; font-size:12; font-weight:bold;" x="29" y="103">
Experimenter</text>
<rect height="22" style="fill:#ffffff; stroke:#ffffff; stroke-width:1" width="111" x="15" y="135"/>
<line style="fill:#000000; stroke:#000000; stroke-width:1" x1="15" x2="126" y1="135" y2="135"/>
<rect height="23" style="fill:#ffffff; stroke:#ffffff; stroke-width:1" width="111" x="15" y="111"/>
<line style="fill:#000000; stroke:#000000; stroke-width:1" x1="15" x2="126" y1="111" y2="111"/>
<rect height="72" style="fill: none; stroke:#000000; stroke-width:1" width="112" x="14" y="86"/>
<rect height="160" style="fill:#ffffff; stroke:#ffffff; stroke-width:1" width="144" x="142" y="118"/>
<rect height="2" style="fill:#ffffff; stroke:#ffffff; stroke-width:1" width="144" x="142" y="118"/>
<rect height="2" style="fill: none; stroke:#000000; stroke-width:1" width="144" x="142" y="118"/>
<rect height="22" style="fill:#ffffff; stroke:#ffffff; stroke-width:1" width="144" x="142" y="120"/>
<text style="font-family:Dialog; font-size:12; font-weight:bold;" x="176" y="135">
Registration</text>
<rect height="20" style="fill:#ffffff; stroke:#ffffff; stroke-width:1" width="143" x="143" y="257"/>
<line style="fill:#000000; stroke:#000000; stroke-width:1" x1="143" x2="286" y1="257" y2="257"/>
<rect height="113" style="fill:#ffffff; stroke:#ffffff; stroke-width:1" width="143" x="143" y="143"/>
<line style="fill:#000000; stroke:#000000; stroke-width:1" x1="143" x2="286" y1="143" y2="143"/>
<text style="font-family:Dialog; font-size:10;" x="146" y="157">
registration_id : long</text>
<text style="font-family:Dialog; font-size:10;" x="146" y="170">
email : String</text>
<text style="font-family:Dialog; font-size:10;" x="146" y="183">
password : String</text>
<text style="font-family:Dialog; font-size:10;" x="146" y="196">
password_hint : String</text>
<text style="font-family:Dialog; font-size:10;" x="146" y="209">
first_name : String</text>
<text style="font-family:Dialog; font-size:10;" x="146" y="222">
last_name : String</text>
<text style="font-family:Dialog; font-size:10;" x="146" y="235">
create_tstmp : Date</text>
<text style="font-family:Dialog; font-size:10;" x="146" y="248">
last_update_tstmp : Date</text>
<rect height="160" style="fill: none; stroke:#000000; stroke-width:1" width="144" x="142" y="118"/>
<polyline points="126,94 214,94 214,118" style="fill:none; stroke:#000000; stroke-width:1"/>
<polygon points="214,118 207,106 221,106" style="fill:#ffffff; stroke:#ffffff; stroke-width:1"/>
<polygon points="214,118 207,106 221,106" style="fill:none; stroke:#000000; stroke-width:1"/>
<polyline points="302,94 214,94 214,118" style="fill:none; stroke:#000000; stroke-width:1"/>
<polygon points="214,118 207,106 221,106" style="fill:#ffffff; stroke:#ffffff; stroke-width:1"/>
<polygon points="214,118 207,106 221,106" style="fill:none; stroke:#000000; stroke-width:1"/>
<polyline points="214,80 214,118" style="fill:none; stroke:#000000; stroke-width:1"/>
<polygon points="214,118 207,106 221,106" style="fill:#ffffff; stroke:#ffffff; stroke-width:1"/>
<polygon points="214,118 207,106 221,106" style="fill:none; stroke:#000000; stroke-width:1"/>
<rect height="72" style="fill:#ffffff; stroke:#ffffff; stroke-width:1" width="112" x="14" y="454"/>
<rect height="2" style="fill:#ffffff; stroke:#ffffff; stroke-width:1" width="112" x="14" y="454"/>
<rect height="2" style="fill: none; stroke:#000000; stroke-width:1" width="112" x="14" y="454"/>
<rect height="22" style="fill:#ffffff; stroke:#ffffff; stroke-width:1" width="112" x="14" y="456"/>
<text style="font-family:Dialog; font-size:12; font-weight:bold;" x="47" y="471">
Sample</text>
<rect height="22" style="fill:#ffffff; stroke:#ffffff; stroke-width:1" width="111" x="15" y="503"/>
<line style="fill:#000000; stroke:#000000; stroke-width:1" x1="15" x2="126" y1="503" y2="503"/>
<rect height="23" style="fill:#ffffff; stroke:#ffffff; stroke-width:1" width="111" x="15" y="479"/>
<line style="fill:#000000; stroke:#000000; stroke-width:1" x1="15" x2="126" y1="479" y2="479"/>
<rect height="72" style="fill: none; stroke:#000000; stroke-width:1" width="112" x="14" y="454"/>
<rect height="210" style="fill:#ffffff; stroke:#ffffff; stroke-width:1" width="112" x="302" y="342"/>
<rect height="2" style="fill:#ffffff; stroke:#ffffff; stroke-width:1" width="112" x="302" y="342"/>
<rect height="2" style="fill: none; stroke:#000000; stroke-width:1" width="112" x="302" y="342"/>
<rect height="22" style="fill:#ffffff; stroke:#ffffff; stroke-width:1" width="112" x="302" y="344"/>
<text style="font-family:Dialog; font-size:12; font-weight:bold;" x="306" y="359">
LaneAssignment</text>
<rect height="20" style="fill:#ffffff; stroke:#ffffff; stroke-width:1" width="111" x="303" y="532"/>
<line style="fill:#000000; stroke:#000000; stroke-width:1" x1="303" x2="414" y1="532" y2="532"/>
<rect height="164" style="fill:#ffffff; stroke:#ffffff; stroke-width:1" width="111" x="303" y="367"/>
<line style="fill:#000000; stroke:#000000; stroke-width:1" x1="303" x2="414" y1="367" y2="367"/>
<text style="font-family:Dialog; font-size:10;" x="306" y="381">
lane_id : long</text>
<text style="font-family:Dialog; font-size:10;" x="306" y="394">
name : String</text>
<text style="font-family:Dialog; font-size:10;" x="306" y="407">
description : String</text>
<text style="font-family:Dialog; font-size:10;" x="306" y="420">
organism : String</text>
<text style="font-family:Dialog; font-size:10;" x="306" y="433">
sample_type : String</text>
<text style="font-family:Dialog; font-size:10;" x="306" y="446">
skip : boolean</text>
<text style="font-family:Dialog; font-size:10;" x="306" y="459">
tags : String</text>
<text style="font-family:Dialog; font-size:10;" x="306" y="472">
regions : String</text>
<text style="font-family:Dialog; font-size:10;" x="306" y="485">
create_tstmp : Date</text>
<text style="font-family:Dialog; font-size:10;" x="306" y="498">
update_tstmp : Date</text>
<text style="font-family:Dialog; font-size:10;" x="306" y="511">
sample_name : String</text>
<text style="font-family:Dialog; font-size:10;" x="306" y="524">
sample_code : String</text>
<rect height="210" style="fill: none; stroke:#000000; stroke-width:1" width="112" x="302" y="342"/>
<polyline points="126,470 302,470" style="fill:none; stroke:#000000; stroke-width:1"/>
<text style="font-family:Dialog; font-size:10;" x="132" y="460">
1..*</text>
<rect height="72" style="fill:#ffffff; stroke:#ffffff; stroke-width:1" width="112" x="302" y="198"/>
<rect height="2" style="fill:#ffffff; stroke:#ffffff; stroke-width:1" width="112" x="302" y="198"/>
<rect height="2" style="fill: none; stroke:#000000; stroke-width:1" width="112" x="302" y="198"/>
<rect height="22" style="fill:#ffffff; stroke:#ffffff; stroke-width:1" width="112" x="302" y="200"/>
<text style="font-family:Dialog; font-size:12; font-weight:bold;" x="346" y="215">
Run</text>
<rect height="22" style="fill:#ffffff; stroke:#ffffff; stroke-width:1" width="111" x="303" y="247"/>
<line style="fill:#000000; stroke:#000000; stroke-width:1" x1="303" x2="414" y1="247" y2="247"/>
<rect height="23" style="fill:#ffffff; stroke:#ffffff; stroke-width:1" width="111" x="303" y="223"/>
<line style="fill:#000000; stroke:#000000; stroke-width:1" x1="303" x2="414" y1="223" y2="223"/>
<rect height="72" style="fill: none; stroke:#000000; stroke-width:1" width="112" x="302" y="198"/>
<polyline points="358,270 358,342" style="fill:none; stroke:#000000; stroke-width:1"/>
<text style="font-family:Dialog; font-size:10;" x="364" y="332">
1..8</text>
<polyline points="358,158 358,198" style="fill:none; stroke:#000000; stroke-width:1"/>
<text style="font-family:Dialog; font-size:10;" x="364" y="188">
0..*</text>
<rect height="171" style="fill:#ffffff; stroke:#ffffff; stroke-width:1" width="112" x="14" y="198"/>
<rect height="2" style="fill:#ffffff; stroke:#ffffff; stroke-width:1" width="112" x="14" y="198"/>
<rect height="2" style="fill: none; stroke:#000000; stroke-width:1" width="112" x="14" y="198"/>
<rect height="22" style="fill:#ffffff; stroke:#ffffff; stroke-width:1" width="112" x="14" y="200"/>
<text style="font-family:Dialog; font-size:12; font-weight:bold;" x="35" y="215">
Experiment</text>
<rect height="20" style="fill:#ffffff; stroke:#ffffff; stroke-width:1" width="111" x="15" y="349"/>
<line style="fill:#000000; stroke:#000000; stroke-width:1" x1="15" x2="126" y1="349" y2="349"/>
<rect height="125" style="fill:#ffffff; stroke:#ffffff; stroke-width:1" width="111" x="15" y="223"/>
<line style="fill:#000000; stroke:#000000; stroke-width:1" x1="15" x2="126" y1="223" y2="223"/>
<text style="font-family:Dialog; font-size:10;" x="18" y="237">
experiment_id : long</text>
<text style="font-family:Dialog; font-size:10;" x="18" y="250">
name : String</text>
<text style="font-family:Dialog; font-size:10;" x="18" y="263">
description : String</text>
<text style="font-family:Dialog; font-size:10;" x="18" y="276">
status : String</text>
<text style="font-family:Dialog; font-size:10;" x="18" y="289">
cycles : String</text>
<text style="font-family:Dialog; font-size:10;" x="18" y="302">
ref_lane : long</text>
<text style="font-family:Dialog; font-size:10;" x="18" y="315">
file_path : String</text>
<text style="font-family:Dialog; font-size:10;" x="18" y="328">
create_tstmp : Date</text>
<text style="font-family:Dialog; font-size:10;" x="18" y="341">
update_tstmp : Date</text>
<rect height="171" style="fill: none; stroke:#000000; stroke-width:1" width="112" x="14" y="198"/>
<polyline points="70,369 70,454" style="fill:none; stroke:#000000; stroke-width:1"/>
<text style="font-family:Dialog; font-size:10;" x="76" y="444">
1..*</text>
<polyline points="70,158 70,198" style="fill:none; stroke:#000000; stroke-width:1"/>
<text style="font-family:Dialog; font-size:10;" x="76" y="188">
0..*</text>
<rect height="132" style="fill:#ffffff; stroke:#ffffff; stroke-width:1" width="144" x="142" y="310"/>
<rect height="2" style="fill:#ffffff; stroke:#ffffff; stroke-width:1" width="144" x="142" y="310"/>
<rect height="2" style="fill: none; stroke:#000000; stroke-width:1" width="144" x="142" y="310"/>
<rect height="22" style="fill:#ffffff; stroke:#ffffff; stroke-width:1" width="144" x="142" y="312"/>
<text style="font-family:Dialog; font-size:12; font-weight:bold;" x="167" y="327">
ProcessingStep</text>
<rect height="20" style="fill:#ffffff; stroke:#ffffff; stroke-width:1" width="143" x="143" y="422"/>
<line style="fill:#000000; stroke:#000000; stroke-width:1" x1="143" x2="286" y1="422" y2="422"/>
<rect height="86" style="fill:#ffffff; stroke:#ffffff; stroke-width:1" width="143" x="143" y="335"/>
<line style="fill:#000000; stroke:#000000; stroke-width:1" x1="143" x2="286" y1="335" y2="335"/>
<text style="font-family:Dialog; font-size:10;" x="146" y="349">
processing_id : long</text>
<text style="font-family:Dialog; font-size:10;" x="146" y="362">
algorithm : String</text>
<text style="font-family:Dialog; font-size:10;" x="146" y="375">
status : String</text>
<text style="font-family:Dialog; font-size:10;" x="146" y="388">
file_path : String</text>
<text style="font-family:Dialog; font-size:10;" x="146" y="401">
create_tstmp : Date</text>
<text style="font-family:Dialog; font-size:10;" x="146" y="414">
update_tstmp : Date</text>
<rect height="132" style="fill: none; stroke:#000000; stroke-width:1" width="144" x="142" y="310"/>
<polyline points="126,294 214,294 214,310" style="fill:none; stroke:#000000; stroke-width:1"/>
<text style="font-family:Dialog; font-size:10;" x="217" y="292">
0..*</text>
<polyline points="286,318 318,318 318,342" style="fill:none; stroke:#000000; stroke-width:1"/>
<text style="font-family:Dialog; font-size:10;" x="292" y="308">
0..*</text>
<text style="font-family:Dialog; font-size:10;" x="324" y="332">
0..*</text>
</svg>
